<?xml version="1.0" encoding="UTF-8" standalone="no"?>
<svg
   xmlns:dc="http://purl.org/dc/elements/1.1/"
   xmlns:cc="http://creativecommons.org/ns#"
   xmlns:rdf="http://www.w3.org/1999/02/22-rdf-syntax-ns#"
   xmlns:svg="http://www.w3.org/2000/svg"
   xmlns="http://www.w3.org/2000/svg"
   xmlns:sodipodi="http://sodipodi.sourceforge.net/DTD/sodipodi-0.dtd"
   xmlns:inkscape="http://www.inkscape.org/namespaces/inkscape"
   width="20"
   height="20"
   viewBox="0 0 5.2916665 5.2916665"
   version="1.1"
   id="svg8"
   sodipodi:docname="disabledRedo.svg"
   inkscape:version="1.0.1 (3bc2e813f5, 2020-09-07)">
  <defs
     id="defs2">
    <inkscape:path-effect
       effect="bspline"
       id="path-effect1089"
       is_visible="true"
       lpeversion="1"
       weight="33.333333"
       steps="2"
       helper_size="0"
       apply_no_weight="true"
       apply_with_weight="true"
       only_selected="false" />
    <inkscape:path-effect
       effect="bspline"
       id="path-effect1087"
       is_visible="true"
       lpeversion="1"
       weight="33.333333"
       steps="2"
       helper_size="0"
       apply_no_weight="true"
       apply_with_weight="true"
       only_selected="false" />
    <inkscape:path-effect
       effect="bspline"
       id="path-effect1085"
       is_visible="true"
       lpeversion="1"
       weight="33.333333"
       steps="2"
       helper_size="0"
       apply_no_weight="true"
       apply_with_weight="true"
       only_selected="false" />
    <inkscape:path-effect
       effect="bspline"
       id="path-effect956"
       is_visible="true"
       lpeversion="1"
       weight="33.333333"
       steps="2"
       helper_size="0"
       apply_no_weight="true"
       apply_with_weight="true"
       only_selected="false" />
    <inkscape:path-effect
       effect="bspline"
       id="path-effect950"
       is_visible="true"
       lpeversion="1"
       weight="33.333333"
       steps="2"
       helper_size="0"
       apply_no_weight="true"
       apply_with_weight="true"
       only_selected="false" />
    <inkscape:path-effect
       effect="bspline"
       id="path-effect942"
       is_visible="true"
       lpeversion="1"
       weight="33.333333"
       steps="2"
       helper_size="0"
       apply_no_weight="true"
       apply_with_weight="true"
       only_selected="false" />
    <inkscape:path-effect
       effect="bspline"
       id="path-effect934"
       is_visible="true"
       lpeversion="1"
       weight="33.333333"
       steps="2"
       helper_size="0"
       apply_no_weight="true"
       apply_with_weight="true"
       only_selected="false" />
    <inkscape:path-effect
       effect="bspline"
       id="path-effect2188"
       is_visible="true"
       lpeversion="1"
       weight="33.333333"
       steps="2"
       helper_size="0"
       apply_no_weight="true"
       apply_with_weight="true"
       only_selected="false" />
    <inkscape:path-effect
       effect="bspline"
       id="path-effect2184"
       is_visible="true"
       lpeversion="1"
       weight="33.333333"
       steps="2"
       helper_size="0"
       apply_no_weight="true"
       apply_with_weight="true"
       only_selected="false" />
    <inkscape:path-effect
       effect="bspline"
       id="path-effect1847"
       is_visible="true"
       lpeversion="1"
       weight="33.333333"
       steps="2"
       helper_size="0"
       apply_no_weight="true"
       apply_with_weight="true"
       only_selected="false" />
    <inkscape:path-effect
       effect="bspline"
       id="path-effect1843"
       is_visible="true"
       lpeversion="1"
       weight="33.333333"
       steps="2"
       helper_size="0"
       apply_no_weight="true"
       apply_with_weight="true"
       only_selected="false" />
  </defs>
  <sodipodi:namedview
     id="base"
     pagecolor="#ffffff"
     bordercolor="#666666"
     borderopacity="1.0"
     inkscape:pageopacity="0"
     inkscape:pageshadow="2"
     inkscape:zoom="32"
     inkscape:cx="9.8586959"
     inkscape:cy="12.541433"
     inkscape:document-units="px"
     inkscape:current-layer="layer3"
     inkscape:document-rotation="0"
     showgrid="true"
     units="px"
     inkscape:window-width="1920"
     inkscape:window-height="1001"
     inkscape:window-x="-9"
     inkscape:window-y="-9"
     inkscape:window-maximized="1"
     showguides="false"
     inkscape:snap-global="false">
    <inkscape:grid
       type="xygrid"
       id="grid1940" />
  </sodipodi:namedview>
  <metadata
     id="metadata5">
    <rdf:RDF>
      <cc:Work
         rdf:about="">
        <dc:format>image/svg+xml</dc:format>
        <dc:type
           rdf:resource="http://purl.org/dc/dcmitype/StillImage" />
        <dc:title />
      </cc:Work>
    </rdf:RDF>
  </metadata>
  <g
     inkscape:groupmode="layer"
     id="layer3"
     inkscape:label="Layer 3"
     style="display:inline">
    <g
       id="g1171"
       transform="rotate(180,2.7439549,3.1553629)"
       style="display:inline;stroke:none">
      <path
         id="path1121-3"
         style="display:inline;fill:none;stroke:none;stroke-width:0.079375;stroke-linecap:butt;stroke-linejoin:miter;stroke-miterlimit:4;stroke-dasharray:none;stroke-opacity:1"
         d="M 2.1853046,2.7586865 1.0865786,3.8864791 0.69483465,4.2733125 M 2.1820625,2.7609361 A 0.26458332,0.26458332 0 0 1 2.4376303,2.6924569 0.26458332,0.26458332 0 0 1 2.624719,2.8795455 0.26458332,0.26458332 0 0 1 2.5562398,3.1351134 M 1.5031756,4.18909 2.5615091,3.1307568 M 2.1848795,6.1536295 1.0861536,5.0258367 0.69440953,4.6390032 m 0.006948,-0.3716676 a 0.26458332,0.26458332 0 0 0 0,0.3741773 M 2.1816373,6.1513798 A 0.26458332,0.26458332 0 0 0 2.4372052,6.219859 0.26458332,0.26458332 0 0 0 2.6242938,6.0327704 0.26458332,0.26458332 0 0 0 2.5558146,5.7772025 M 2.561084,2.0773937 C 2.7394555,1.8070589 2.9176216,1.5370354 3.1381407,1.4048965 3.3586598,1.2727576 3.621457,1.2782025 3.8840007,1.2836421 M 2.8256673,4.1940604 c 0.7058203,0 1.4113756,0 1.7640211,-0.3970152 C 4.9423339,3.4000299 4.9423339,2.6062958 4.6866861,2.161062 4.4310383,1.7158281 3.9195661,1.6188123 3.5227329,1.6627904 3.1258997,1.7067684 2.8436479,1.8919787 2.561084,2.0773937 M 2.8256673,4.723227 c 0.7940143,0 1.5877487,1e-7 2.0286134,-0.3970281 C 5.2951455,3.9291708 5.3833382,3.1354366 5.251027,2.5623144 5.1187157,1.9891923 4.7659449,1.6364215 4.5014921,1.4600327 4.2370394,1.2836438 4.0606537,1.2836438 3.8840007,1.2836438 M 1.4895676,4.1940604 h 1.3360997 m -1.3229167,0.5291667 1.3229167,-1e-7 m -1.3229167,-1.2e-6 1.0583333,1.0583333" />
    </g>
    <path
       style="fill:#808080;fill-opacity:1;fill-rule:evenodd;stroke:none;stroke-width:0.00248047;stroke-miterlimit:4;stroke-dasharray:none"
       d="M 1.9190431,4.9798268 C 2.2522069,4.9573862 2.433735,4.8450055 2.6846723,4.5058398 2.7248465,4.4515404 2.7561227,4.4055199 2.7541748,4.403572 2.7522275,4.4016141 2.7146052,4.421233 2.670571,4.4471494 2.4400149,4.5828389 2.205163,4.6640247 1.9640445,4.6913879 1.8415096,4.7052944 1.6197141,4.6972061 1.5065283,4.6747033 0.94327351,4.5627271 0.63302256,4.1745939 0.58182992,3.5178772 0.55399893,3.1608559 0.63938182,2.7951432 0.8054957,2.5598692 0.98270356,2.3088825 1.2944894,2.160716 1.7570511,2.1076721 1.9975534,2.0800927 2.1223195,2.0766922 3.0560834,2.0722677 l 0.9476324,-0.00449 0.00456,0.044395 0.00456,0.044395 L 3.4684854,2.702271 C 2.9249788,3.2471309 2.924116,3.2480496 2.9101141,3.2968972 2.8571839,3.4815512 3.0426348,3.6421478 3.2133593,3.5595015 3.2405408,3.5463432 3.3823766,3.4058034 3.7633526,3.0145339 4.0457039,2.7245537 4.3889319,2.3757173 4.5260815,2.2393419 4.8054129,1.9615875 4.8164219,1.947007 4.8161143,1.8552212 4.815993,1.819003 4.8104432,1.7889341 4.7993785,1.7645458 4.787204,1.7377113 4.6827929,1.6272407 4.4047357,1.3470002 4.196787,1.1374187 3.8536419,0.78792482 3.642191,0.5703472 3.4301643,0.35217711 3.2421493,0.16558417 3.2229847,0.15431154 3.1243484,0.09629357 2.9866116,0.13741694 2.9277013,0.24247282 c -0.021844,0.038955 -0.025465,0.0537738 -0.025255,0.10335286 1.869e-4,0.043966 0.00485,0.0668208 0.019411,0.0950846 0.013196,0.0256192 0.1862932,0.20461303 0.5557929,0.57472682 0.2951452,0.2956358 0.5366278,0.5416768 0.5366278,0.5467578 0,0.00508 -0.00558,0.01387 -0.012402,0.019531 -0.00682,0.00566 -0.012402,0.019139 -0.012402,0.029951 v 0.019658 L 3.1068396,1.631585 C 2.2213872,1.6316346 1.9374369,1.6375201 1.6991735,1.660764 0.99130755,1.7298203 0.62642068,1.9288036 0.41094031,2.3632743 0.32071263,2.5451994 0.26759912,2.7370931 0.23880213,2.9851921 0.22232653,3.1271453 0.22704143,3.4340376 0.24772913,3.5663015 0.29853603,3.8911069 0.411271,4.1691086 0.58842489,4.4064499 0.79308062,4.680636 1.0738126,4.8926879 1.3161182,4.9561157 c 0.099146,0.025953 0.3962035,0.037636 0.6029249,0.023711 z"
       id="path1188" />
  </g>
</svg>
