<?xml version="1.0" encoding="UTF-8" standalone="no"?>
<svg
   id="Layer_1"
   version="1.1"
   viewBox="0 0 101.6 76.199997"
   xml:space="preserve"
   sodipodi:docname="snapshotIcon.svg"
   inkscape:version="1.3.2 (091e20e, 2023-11-25, custom)"
   width="101.6"
   height="76.199997"
   xmlns:inkscape="http://www.inkscape.org/namespaces/inkscape"
   xmlns:sodipodi="http://sodipodi.sourceforge.net/DTD/sodipodi-0.dtd"
   xmlns="http://www.w3.org/2000/svg"
   xmlns:svg="http://www.w3.org/2000/svg"><defs
     id="defs50" /><sodipodi:namedview
     id="namedview50"
     pagecolor="#ffffff"
     bordercolor="#000000"
     borderopacity="0.25"
     inkscape:showpageshadow="2"
     inkscape:pageopacity="0.0"
     inkscape:pagecheckerboard="0"
     inkscape:deskcolor="#d1d1d1"
     inkscape:zoom="4.9884174"
     inkscape:cx="36.985678"
     inkscape:cy="11.125773"
     inkscape:window-width="1280"
     inkscape:window-height="965"
     inkscape:window-x="1912"
     inkscape:window-y="-8"
     inkscape:window-maximized="1"
     inkscape:current-layer="g30" /><style
     type="text/css"
     id="style1">
	.st0{fill:#581166;}
	.st1{fill:#E83A3A;}
	.st2{fill:#FF5855;}
	.st3{opacity:0.5;}
	.st4{fill:#FFDA8E;}
	.st5{fill:#FFFFFF;}
	.st6{fill:#EABA65;}
	.st7{fill:#E6E6E6;}
	.st8{fill:#460A54;}
	.st9{fill:none;}
	.st10{fill:none;stroke:#581166;stroke-width:2;stroke-linecap:round;stroke-linejoin:round;stroke-miterlimit:10;}
	.st11{fill:#F2F2F2;}
</style><g
     id="g3"
     transform="translate(-14.5,-25.5)"><g
       id="g2"><g
         id="g1"><path
           class="st2"
           d="M 79.9,58.8 H 52.6 c -10.3,0 -18.8,-3 -18.8,-6.7 0,0 8.5,-24.7 18.8,-24.7 H 80 c 10.3,0 18.8,24.7 18.8,24.7 -0.1,3.7 -8.5,6.7 -18.9,6.7 z"
           id="path1"
           style="fill:#00aae5;fill-opacity:1" /></g></g></g><g
     id="g6"
     transform="translate(-14.5,-25.5)"><g
       id="g5"><g
         id="g4"><path
           class="st0"
           d="M 79.9,60.7 H 52.6 c -10.3,0 -20.7,-2.9 -20.7,-8.6 0,-0.2 0,-0.4 0.1,-0.6 0.9,-2.7 9.2,-26 20.6,-26 H 80 c 11.3,0 19.6,23.3 20.6,26 0.1,0.2 0.1,0.4 0.1,0.6 -0.1,5.6 -10.5,8.6 -20.8,8.6 z M 35.7,52.3 c 0.5,1.7 6.8,4.6 16.9,4.6 H 80 C 90.1,56.9 96.4,54 96.9,52.3 93.7,43.2 86.5,29.3 80,29.3 H 52.6 c -6.5,0 -13.7,13.9 -16.9,23 z"
           id="path3" /></g></g></g><g
     id="g9"
     transform="translate(-14.5,-25.5)"><g
       id="g8"><g
         id="g7"><path
           class="st4"
           d="m 114.2,43.2 v 5.3 H 16.4 v -5.3 c 0,-3.7 3,-6.7 6.7,-6.7 h 84.4 c 3.7,0 6.7,3 6.7,6.7 z"
           id="path6" /></g></g></g><g
     id="g12"
     transform="translate(-14.5,-25.5)"><g
       id="g11"><g
         id="g10"><path
           class="st4"
           d="m 114.2,87.8 v 5.3 c 0,3.7 -3,6.7 -6.7,6.7 H 23.1 c -3.7,0 -6.7,-3 -6.7,-6.7 v -5.3 z"
           id="path9" /></g></g></g><g
     id="g15"
     transform="translate(-14.5,-25.5)"><g
       id="g14"><g
         id="g13"><rect
           class="st2"
           height="39.299999"
           width="97.800003"
           x="16.4"
           y="48.5"
           id="rect12"
           style="fill:#00aae5;fill-opacity:1" /></g></g></g><g
     id="g18"
     transform="translate(-14.5,-25.5)"><g
       id="g17"><g
         id="g16"><path
           class="st0"
           d="M 114.2,50.4 H 16.4 c -1,0 -1.9,-0.8 -1.9,-1.9 v -5.3 c 0,-4.7 3.8,-8.6 8.6,-8.6 h 84.4 c 4.7,0 8.6,3.8 8.6,8.6 v 5.3 c 0,1 -0.9,1.9 -1.9,1.9 z M 18.3,46.6 h 94 v -3.4 c 0,-2.7 -2.2,-4.8 -4.8,-4.8 H 23.1 c -2.7,0 -4.8,2.2 -4.8,4.8 z"
           id="path15" /></g></g></g><g
     id="g21"
     transform="translate(-14.5,-25.5)"><g
       id="g20"><g
         id="g19"><path
           class="st0"
           d="M 107.5,101.7 H 23.1 c -4.7,0 -8.6,-3.8 -8.6,-8.6 v -5.3 c 0,-1 0.8,-1.9 1.9,-1.9 h 97.8 c 1,0 1.9,0.8 1.9,1.9 v 5.3 c 0,4.7 -3.9,8.6 -8.6,8.6 z m -89.2,-12 v 3.4 c 0,2.7 2.2,4.8 4.8,4.8 h 84.4 c 2.7,0 4.8,-2.2 4.8,-4.8 v -3.4 z"
           id="path18" /></g></g></g><g
     id="g24"
     transform="translate(-14.5,-25.5)"><g
       id="g23"><g
         id="g22"><path
           class="st0"
           d="M 106.7,101.7 H 23.9 c -5.2,0 -9.4,-4.2 -9.4,-9.4 V 44 c 0,-5.2 4.2,-9.4 9.4,-9.4 h 82.8 c 5.2,0 9.4,4.2 9.4,9.4 v 48.3 c 0,5.2 -4.2,9.4 -9.4,9.4 z M 23.9,38.4 c -3.1,0 -5.6,2.5 -5.6,5.6 v 48.3 c 0,3.1 2.5,5.6 5.6,5.6 h 82.8 c 3.1,0 5.6,-2.5 5.6,-5.6 V 44 c 0,-3.1 -2.5,-5.6 -5.6,-5.6 z"
           id="path21" /></g></g></g><g
     class="st3"
     id="g27"
     transform="translate(-14.5,-25.5)"><g
       id="g26"><g
         id="g25"><ellipse
           class="st0"
           cx="65.300003"
           cy="75.599998"
           rx="24.6"
           ry="22.1"
           id="ellipse24" /></g></g></g><g
     id="g40"
     transform="translate(-14.5,-25.5)"><g
       id="g30"><g
         id="g29"><g
           id="g28"><ellipse
             class="st2"
             cx="65.300003"
             cy="68.599998"
             rx="24.6"
             ry="25.5"
             id="ellipse27"
             style="fill:#00aae5;fill-opacity:1" /></g></g></g><g
       id="g33"><g
         id="g32"><g
           id="g31"><path
             class="st0"
             d="M 65.3,96 C 50.7,96 38.8,83.7 38.8,68.6 38.8,53.5 50.7,41.2 65.3,41.2 79.9,41.2 91.8,53.5 91.8,68.6 91.8,83.7 79.9,96 65.3,96 Z m 0,-51 c -12.5,0 -22.7,10.6 -22.7,23.6 0,13 10.2,23.6 22.7,23.6 C 77.8,92.2 88,81.6 88,68.6 88.1,55.6 77.9,45 65.3,45 Z"
             id="path30" /></g></g></g><g
       id="g36"><g
         id="g35"><g
           id="g34"><ellipse
             class="st5"
             cx="65.300003"
             cy="68.599998"
             rx="16.9"
             ry="17.6"
             id="ellipse33" /></g></g></g><g
       id="g39"><g
         id="g38"><g
           id="g37"><path
             class="st0"
             d="M 65.3,88 C 54.9,88 46.5,79.3 46.5,68.6 c 0,-10.7 8.4,-19.4 18.8,-19.4 10.4,0 18.8,8.7 18.8,19.4 0,10.7 -8.4,19.4 -18.8,19.4 z m 0,-35.1 c -8.3,0 -15.1,7 -15.1,15.7 0,8.7 6.8,15.7 15.1,15.7 8.3,0 15.1,-7 15.1,-15.7 0,-8.7 -6.8,-15.7 -15.1,-15.7 z"
             id="path36" /></g></g></g></g><g
     id="g43"
     transform="translate(-14.5,-25.5)"><g
       id="g42"><g
         id="g41"><path
           class="st0"
           d="m 108.3,45 h -9.6 c -1,0 -1.9,-0.8 -1.9,-1.9 0,-1 0.8,-1.9 1.9,-1.9 h 9.6 c 1,0 1.9,0.8 1.9,1.9 0,1 -0.9,1.9 -1.9,1.9 z"
           id="path40" /></g></g></g><g
     id="g46"
     transform="translate(-14.5,-25.5)"><g
       id="g45"><g
         id="g44"><circle
           class="st8"
           cx="26.9"
           cy="41.900002"
           r="2.7"
           id="circle43" /></g></g></g><g
     id="g49"
     transform="translate(-14.5,-25.5)"><g
       id="g48"><g
         id="g47"><path
           class="st0"
           d="m 76.3,66.8 c -0.9,0 -1.7,-0.6 -1.8,-1.5 -1.1,-5.4 -5,-5.5 -5.1,-5.5 0,0 0,0 0,0 -1,0 -1.9,-0.8 -1.9,-1.9 0,-1 0.8,-1.9 1.9,-1.9 0,0 0,0 0,0 2.4,0 7.4,1.8 8.7,8.5 0.2,1 -0.4,2 -1.5,2.2 0,0.1 -0.2,0.1 -0.3,0.1 z"
           id="path46" /></g></g></g></svg>
