<?xml version="1.0" encoding="UTF-8" standalone="no"?>
<svg
   xmlns:dc="http://purl.org/dc/elements/1.1/"
   xmlns:cc="http://creativecommons.org/ns#"
   xmlns:rdf="http://www.w3.org/1999/02/22-rdf-syntax-ns#"
   xmlns:svg="http://www.w3.org/2000/svg"
   xmlns="http://www.w3.org/2000/svg"
   xmlns:sodipodi="http://sodipodi.sourceforge.net/DTD/sodipodi-0.dtd"
   xmlns:inkscape="http://www.inkscape.org/namespaces/inkscape"
   width="20"
   height="20"
   viewBox="0 0 5.2916665 5.2916665"
   version="1.1"
   id="svg8"
   sodipodi:docname="undo.svg"
   inkscape:version="1.0.1 (3bc2e813f5, 2020-09-07)">
  <defs
     id="defs2">
    <inkscape:path-effect
       effect="bspline"
       id="path-effect1089"
       is_visible="true"
       lpeversion="1"
       weight="33.333333"
       steps="2"
       helper_size="0"
       apply_no_weight="true"
       apply_with_weight="true"
       only_selected="false" />
    <inkscape:path-effect
       effect="bspline"
       id="path-effect1087"
       is_visible="true"
       lpeversion="1"
       weight="33.333333"
       steps="2"
       helper_size="0"
       apply_no_weight="true"
       apply_with_weight="true"
       only_selected="false" />
    <inkscape:path-effect
       effect="bspline"
       id="path-effect1085"
       is_visible="true"
       lpeversion="1"
       weight="33.333333"
       steps="2"
       helper_size="0"
       apply_no_weight="true"
       apply_with_weight="true"
       only_selected="false" />
    <inkscape:path-effect
       effect="bspline"
       id="path-effect956"
       is_visible="true"
       lpeversion="1"
       weight="33.333333"
       steps="2"
       helper_size="0"
       apply_no_weight="true"
       apply_with_weight="true"
       only_selected="false" />
    <inkscape:path-effect
       effect="bspline"
       id="path-effect950"
       is_visible="true"
       lpeversion="1"
       weight="33.333333"
       steps="2"
       helper_size="0"
       apply_no_weight="true"
       apply_with_weight="true"
       only_selected="false" />
    <inkscape:path-effect
       effect="bspline"
       id="path-effect942"
       is_visible="true"
       lpeversion="1"
       weight="33.333333"
       steps="2"
       helper_size="0"
       apply_no_weight="true"
       apply_with_weight="true"
       only_selected="false" />
    <inkscape:path-effect
       effect="bspline"
       id="path-effect934"
       is_visible="true"
       lpeversion="1"
       weight="33.333333"
       steps="2"
       helper_size="0"
       apply_no_weight="true"
       apply_with_weight="true"
       only_selected="false" />
    <inkscape:path-effect
       effect="bspline"
       id="path-effect2188"
       is_visible="true"
       lpeversion="1"
       weight="33.333333"
       steps="2"
       helper_size="0"
       apply_no_weight="true"
       apply_with_weight="true"
       only_selected="false" />
    <inkscape:path-effect
       effect="bspline"
       id="path-effect2184"
       is_visible="true"
       lpeversion="1"
       weight="33.333333"
       steps="2"
       helper_size="0"
       apply_no_weight="true"
       apply_with_weight="true"
       only_selected="false" />
    <inkscape:path-effect
       effect="bspline"
       id="path-effect1847"
       is_visible="true"
       lpeversion="1"
       weight="33.333333"
       steps="2"
       helper_size="0"
       apply_no_weight="true"
       apply_with_weight="true"
       only_selected="false" />
    <inkscape:path-effect
       effect="bspline"
       id="path-effect1843"
       is_visible="true"
       lpeversion="1"
       weight="33.333333"
       steps="2"
       helper_size="0"
       apply_no_weight="true"
       apply_with_weight="true"
       only_selected="false" />
  </defs>
  <sodipodi:namedview
     id="base"
     pagecolor="#ffffff"
     bordercolor="#666666"
     borderopacity="1.0"
     inkscape:pageopacity="0"
     inkscape:pageshadow="2"
     inkscape:zoom="8"
     inkscape:cx="14.31919"
     inkscape:cy="28.644362"
     inkscape:document-units="px"
     inkscape:current-layer="layer3"
     inkscape:document-rotation="0"
     showgrid="true"
     units="px"
     inkscape:window-width="1920"
     inkscape:window-height="1001"
     inkscape:window-x="-9"
     inkscape:window-y="-9"
     inkscape:window-maximized="1"
     showguides="false"
     inkscape:snap-global="false">
    <inkscape:grid
       type="xygrid"
       id="grid1940" />
  </sodipodi:namedview>
  <metadata
     id="metadata5">
    <rdf:RDF>
      <cc:Work
         rdf:about="">
        <dc:format>image/svg+xml</dc:format>
        <dc:type
           rdf:resource="http://purl.org/dc/dcmitype/StillImage" />
        <dc:title />
      </cc:Work>
    </rdf:RDF>
  </metadata>
  <g
     inkscape:groupmode="layer"
     id="layer3"
     inkscape:label="Layer 3"
     style="display:inline">
    <g
       id="g1171"
       transform="matrix(1,0,0,-1,-0.4444173,6.3107258)"
       style="display:inline;stroke:none">
      <path
         id="path1121-3"
         style="display:inline;fill:none;stroke:none;stroke-width:0.079375;stroke-linecap:butt;stroke-linejoin:miter;stroke-miterlimit:4;stroke-dasharray:none;stroke-opacity:1"
         d="M 2.1853046,2.7586865 1.0865786,3.8864791 0.69483465,4.2733125 M 2.1820625,2.7609361 A 0.26458332,0.26458332 0 0 1 2.4376303,2.6924569 0.26458332,0.26458332 0 0 1 2.624719,2.8795455 0.26458332,0.26458332 0 0 1 2.5562398,3.1351134 M 1.5031756,4.18909 2.5615091,3.1307568 M 2.1848795,6.1536295 1.0861536,5.0258367 0.69440953,4.6390032 m 0.006948,-0.3716676 a 0.26458332,0.26458332 0 0 0 0,0.3741773 M 2.1816373,6.1513798 A 0.26458332,0.26458332 0 0 0 2.4372052,6.219859 0.26458332,0.26458332 0 0 0 2.6242938,6.0327704 0.26458332,0.26458332 0 0 0 2.5558146,5.7772025 M 2.561084,2.0773937 C 2.7394555,1.8070589 2.9176216,1.5370354 3.1381407,1.4048965 3.3586598,1.2727576 3.621457,1.2782025 3.8840007,1.2836421 M 2.8256673,4.1940604 c 0.7058203,0 1.4113756,0 1.7640211,-0.3970152 C 4.9423339,3.4000299 4.9423339,2.6062958 4.6866861,2.161062 4.4310383,1.7158281 3.9195661,1.6188123 3.5227329,1.6627904 3.1258997,1.7067684 2.8436479,1.8919787 2.561084,2.0773937 M 2.8256673,4.723227 c 0.7940143,0 1.5877487,1e-7 2.0286134,-0.3970281 C 5.2951455,3.9291708 5.3833382,3.1354366 5.251027,2.5623144 5.1187157,1.9891923 4.7659449,1.6364215 4.5014921,1.4600327 4.2370394,1.2836438 4.0606537,1.2836438 3.8840007,1.2836438 M 1.4895676,4.1940604 h 1.3360997 m -1.3229167,0.5291667 1.3229167,-1e-7 m -1.3229167,-1.2e-6 1.0583333,1.0583333" />
    </g>
    <path
       style="fill:#808080;fill-opacity:1;fill-rule:evenodd;stroke:none;stroke-width:0.009375;stroke-miterlimit:4;stroke-dasharray:none"
       d="M 11.808943,18.821393 C 10.549741,18.736578 9.8636506,18.311832 8.9152262,17.029946 8.7633865,16.82472 8.6451775,16.650784 8.6525396,16.643422 c 0.00736,-0.0074 0.1495544,0.06675 0.3159829,0.164702 0.8713931,0.512842 1.7590225,0.819686 2.6703365,0.923106 0.463124,0.05256 1.301406,0.02199 1.729195,-0.06306 2.128837,-0.423217 3.301439,-1.890177 3.494923,-4.372256 C 16.968165,11.946542 16.645458,10.564321 16.017626,9.6750962 15.347864,8.7264852 14.169461,8.1664858 12.421196,7.9660049 11.512211,7.8617677 11.040654,7.8489155 7.5114678,7.832193 L 3.9298647,7.8152221 3.9126353,7.9830149 3.8954059,8.1508077 5.9527831,10.213308 c 2.0541981,2.059313 2.057459,2.062785 2.1103797,2.247406 0.2000509,0.697905 -0.5008657,1.304884 -1.1461238,0.99252 C 6.8143059,13.403502 6.2782337,12.872328 4.8383243,11.393514 3.7711696,10.297526 2.4739298,8.979089 1.9555694,8.4636546 0.89982871,7.413874 0.8582197,7.3587668 0.85938222,7.0118596 0.85984094,6.8749721 0.88081648,6.7613258 0.92263578,6.6691496 0.96864954,6.5677277 1.3632743,6.1502012 2.414199,5.0910246 3.2001468,4.2989052 4.4970734,2.9779836 5.2962578,2.155643 6.0976187,1.3310631 6.8082265,0.62582993 6.8806596,0.58322474 7.2534584,0.36394419 7.7740384,0.5193711 7.9966915,0.91643273 8.0792518,1.0636642 8.0929378,1.1196722 8.0921428,1.3070577 8.0914365,1.4732286 8.073804,1.5596086 8.01878,1.6664327 7.9689046,1.7632613 7.3146796,2.4397733 5.9181456,3.8386283 4.8026359,4.9559921 3.8899459,5.8859108 3.8899459,5.9051146 c 0,0.019203 0.021094,0.052422 0.046875,0.073818 0.025781,0.021397 0.046875,0.072337 0.046875,0.1132013 v 0.074299 l 3.3359375,1.875e-4 c 3.3465916,1.875e-4 4.4197896,0.022432 5.3203126,0.1102828 2.675399,0.2610003 4.054499,1.0130632 4.868913,2.6551572 0.341018,0.687591 0.541762,1.4128586 0.650601,2.3505556 0.06227,0.536516 0.04445,1.696424 -0.03374,2.196319 -0.192026,1.227611 -0.618111,2.278326 -1.287669,3.175364 -0.773502,1.036294 -1.834536,1.83775 -2.750337,2.077477 -0.374726,0.09809 -1.497462,0.142246 -2.278771,0.08962 z"
       id="path1188"
       transform="scale(0.26458333)" />
    <path
       style="fill:#1B456F;fill-rule:evenodd;stroke:none;stroke-width:0.009375"
       d="M 11.671472,18.790638 C 10.771886,18.69729 10.203152,18.420217 9.5757322,17.769647 9.287245,17.470515 8.7356118,16.783485 8.7342147,16.72158 c -2.813e-4,-0.01264 0.044191,0.0042 0.098836,0.03744 0.054645,0.03323 0.110895,0.05329 0.125,0.04457 0.014105,-0.0087 0.025645,-0.0012 0.025645,0.01661 0,0.03713 0.2497484,0.172661 0.2504784,0.135926 2.5e-4,-0.01324 0.01081,-0.0083 0.023437,0.01105 0.032367,0.04951 0.4686138,0.26315 0.8179349,0.400564 0.331062,0.13023 1.032084,0.318051 1.30595,0.349895 0.526818,0.06126 1.703827,0.05642 1.848784,-0.0076 0.02766,-0.01222 0.06789,-0.01937 0.0894,-0.0159 0.02151,0.0035 0.180365,-0.03095 0.353015,-0.07649 1.167521,-0.30795 1.968115,-0.895802 2.529818,-1.857571 0.137326,-0.235134 0.368239,-0.783923 0.382066,-0.908019 0.0047,-0.04194 0.01919,-0.0842 0.03227,-0.09392 0.04058,-0.03017 0.174607,-0.676436 0.225869,-1.089122 0.04262,-0.343135 0.04875,-0.91865 0.01749,-1.643202 -0.007,-0.162719 -0.134012,-0.782845 -0.218648,-1.067707 C 16.29995,9.8083413 15.679896,9.0439707 14.68683,8.5484132 14.392348,8.4014616 13.896527,8.2211854 13.855901,8.2462941 c -0.01565,0.00967 -0.02845,0.00507 -0.02845,-0.010223 0,-0.033108 -0.613107,-0.1766681 -1.03125,-0.2414691 C 12.525713,7.952684 12.369416,7.936309 11.858701,7.896386 11.303043,7.852948 9.7925237,7.8253242 7.0421875,7.8083017 4.1898943,7.7906483 3.9271746,7.7932783 3.9093749,7.8396636 3.898689,7.8675108 3.8899459,7.9550186 3.8899459,8.0341255 v 0.1438306 l 1.9465563,1.9551759 c 1.0706056,1.075347 1.9966975,2.018457 2.0579815,2.095801 0.1871585,0.236204 0.2272625,0.452602 0.134391,0.725165 -0.1036807,0.304286 -0.4327157,0.555119 -0.7290532,0.55578 -0.3158409,7.03e-4 -0.330109,-0.01 -1.2705781,-0.950987 C 4.1015222,10.630058 1.1115959,7.5725521 1.0123742,7.428628 0.92410589,7.3005924 0.90508921,7.2420608 0.89511747,7.0677239 0.8728186,6.6778708 0.82762673,6.7344336 2.5764778,4.963308 3.1195608,4.413308 4.2985803,3.2155497 5.1965209,2.301623 6.4124984,1.0639976 6.8654859,0.62234357 6.9715597,0.57099406 7.2519737,0.43524802 7.6476968,0.53592598 7.8818206,0.80257819 8.0815197,1.030023 8.1309528,1.3806351 7.9992337,1.6353514 7.9373618,1.7549988 7.4284493,2.2815661 5.3827822,4.3425714 4.5445347,5.1871039 3.8586959,5.8920227 3.8586959,5.9090577 c 0,0.017035 0.021094,0.048479 0.046875,0.069875 0.025781,0.021397 0.046875,0.079465 0.046875,0.1290406 v 0.090138 l 3.4140625,-2.812e-4 c 3.4122656,-2.813e-4 4.5192766,0.022638 5.3624166,0.1109865 0.608134,0.063723 1.290049,0.1820766 1.723521,0.2991354 0.197656,0.053376 0.380469,0.098916 0.40625,0.1011984 0.02578,0.00228 0.05391,0.011191 0.0625,0.019797 0.02689,0.026929 0.543312,0.229145 0.585192,0.229145 0.02189,0 0.03981,0.010771 0.03981,0.023936 0,0.022422 0.08048,0.058189 0.132812,0.059024 0.01289,2.188e-4 0.04805,0.021937 0.07813,0.048292 0.03008,0.026355 0.186329,0.1337672 0.347224,0.2386938 1.103638,0.719729 1.829186,2.1390378 2.034065,3.9790128 0.04227,0.379611 0.04349,1.351879 0.0023,1.8125 -0.118397,1.323242 -0.665647,2.706325 -1.46523,3.703126 -0.377286,0.470343 -0.967826,1.015964 -1.44965,1.339384 -0.247729,0.166292 -0.843754,0.473123 -0.919038,0.473123 -0.02301,0 -0.04183,0.01489 -0.04183,0.03309 0,0.0182 -0.01245,0.0254 -0.02766,0.016 -0.01521,-0.0094 -0.06795,-0.0034 -0.117188,0.01343 -0.20014,0.06823 -0.568208,0.09779 -1.355152,0.108843 -0.455469,0.0064 -0.947532,-7.65e-4 -1.093474,-0.01591 z"
       id="path1478"
       transform="scale(0.26458333)" />
  </g>
</svg>
